<mxfile host="app.diagrams.net" modified="2020-09-13T22:18:32.464Z" agent="5.0 (Windows NT 10.0; Win64; x64) AppleWebKit/537.36 (KHTML, like Gecko) Chrome/85.0.4183.83 Safari/537.36" etag="bzYktkpbC7iEzSUNrLaT" version="13.6.10" type="github">
  <diagram id="YfVlrjPwkpToWXs9gbmX" name="Page-1">
    <mxGraphModel dx="1712" dy="481" grid="0" gridSize="10" guides="1" tooltips="1" connect="1" arrows="1" fold="1" page="1" pageScale="1" pageWidth="400" pageHeight="500" background="none" math="0" shadow="1">
      <root>
        <mxCell id="0" />
        <mxCell id="1" parent="0" />
        <mxCell id="C1bB6CRKGX8gR5cbwE8M-1" value="微信公众号开发" style="rounded=1;whiteSpace=wrap;html=1;fillColor=#FF639C;arcSize=50;fontColor=#FFFFFF;" parent="1" vertex="1">
          <mxGeometry x="324" y="168" width="146" height="88" as="geometry" />
        </mxCell>
        <mxCell id="OaKxnfZAiIrrLA7SOXJd-7" value="L" style="rhombus;whiteSpace=wrap;html=1;fillColor=#59FF7A;align=center;labelPosition=center;verticalLabelPosition=top;verticalAlign=bottom;" parent="1" vertex="1">
          <mxGeometry x="511" y="215" width="80" height="80" as="geometry" />
        </mxCell>
        <mxCell id="OaKxnfZAiIrrLA7SOXJd-38" value="" style="edgeStyle=orthogonalEdgeStyle;curved=1;rounded=0;orthogonalLoop=1;jettySize=auto;html=1;startArrow=circle;startFill=1;startSize=0;endArrow=none;endFill=0;endSize=0;targetPerimeterSpacing=3;strokeColor=#DF3DFF;strokeWidth=3;dashed=1;dashPattern=1 1;entryX=0.5;entryY=1;entryDx=0;entryDy=0;exitX=0;exitY=0.5;exitDx=0;exitDy=0;" parent="1" source="OaKxnfZAiIrrLA7SOXJd-8" target="OaKxnfZAiIrrLA7SOXJd-24" edge="1">
          <mxGeometry relative="1" as="geometry">
            <Array as="points">
              <mxPoint x="197" y="161" />
            </Array>
          </mxGeometry>
        </mxCell>
        <mxCell id="OaKxnfZAiIrrLA7SOXJd-39" value="" style="edgeStyle=orthogonalEdgeStyle;curved=1;rounded=0;orthogonalLoop=1;jettySize=auto;html=1;dashed=1;dashPattern=1 1;startArrow=circle;startFill=1;startSize=0;endArrow=none;endFill=0;endSize=0;targetPerimeterSpacing=3;strokeColor=#DF3DFF;strokeWidth=3;entryX=0.5;entryY=1;entryDx=0;entryDy=0;" parent="1" source="OaKxnfZAiIrrLA7SOXJd-8" target="OaKxnfZAiIrrLA7SOXJd-7" edge="1">
          <mxGeometry relative="1" as="geometry">
            <mxPoint x="237" y="361" as="targetPoint" />
            <Array as="points">
              <mxPoint x="325" y="241" />
              <mxPoint x="325" y="295" />
            </Array>
          </mxGeometry>
        </mxCell>
        <mxCell id="EErtVuoZGKK6cC3hVD9d-11" style="edgeStyle=orthogonalEdgeStyle;curved=1;rounded=0;orthogonalLoop=1;jettySize=auto;html=1;sourcePerimeterSpacing=0;endArrow=oval;endFill=1;targetPerimeterSpacing=6;strokeColor=#DF3DFF;fontColor=#000000;entryX=0.25;entryY=0;entryDx=0;entryDy=0;exitX=0;exitY=0.5;exitDx=0;exitDy=0;" parent="1" source="OaKxnfZAiIrrLA7SOXJd-8" target="EErtVuoZGKK6cC3hVD9d-7" edge="1">
          <mxGeometry relative="1" as="geometry">
            <mxPoint x="71.16666666666674" y="281.5" as="targetPoint" />
            <Array as="points">
              <mxPoint x="197" y="227" />
              <mxPoint x="158" y="227" />
              <mxPoint x="158" y="279" />
              <mxPoint x="71" y="279" />
            </Array>
          </mxGeometry>
        </mxCell>
        <mxCell id="OaKxnfZAiIrrLA7SOXJd-8" value="P" style="rhombus;whiteSpace=wrap;html=1;fillColor=#59FF7A;align=center;labelPosition=center;verticalLabelPosition=top;verticalAlign=bottom;" parent="1" vertex="1">
          <mxGeometry x="197" y="201" width="80" height="80" as="geometry" />
        </mxCell>
        <mxCell id="OaKxnfZAiIrrLA7SOXJd-24" value="W" style="rhombus;whiteSpace=wrap;html=1;fillColor=#59FF7A;align=center;labelPosition=center;verticalLabelPosition=top;verticalAlign=bottom;" parent="1" vertex="1">
          <mxGeometry x="197" y="81" width="80" height="80" as="geometry" />
        </mxCell>
        <mxCell id="OaKxnfZAiIrrLA7SOXJd-23" value="" style="edgeStyle=orthogonalEdgeStyle;curved=1;rounded=0;orthogonalLoop=1;jettySize=auto;html=1;startArrow=oval;startFill=1;endArrow=none;endFill=0;strokeWidth=3;fillColor=#ffe6cc;strokeColor=#DF3DFF;endSize=0;targetPerimeterSpacing=3;" parent="1" source="OaKxnfZAiIrrLA7SOXJd-24" target="C1bB6CRKGX8gR5cbwE8M-1" edge="1">
          <mxGeometry relative="1" as="geometry">
            <mxPoint x="798" y="249.99999999999994" as="targetPoint" />
            <Array as="points">
              <mxPoint x="296" y="121" />
              <mxPoint x="296" y="196" />
            </Array>
          </mxGeometry>
        </mxCell>
        <mxCell id="OaKxnfZAiIrrLA7SOXJd-28" value="&lt;span&gt;所学&lt;/span&gt;" style="text;html=1;align=center;verticalAlign=middle;resizable=0;points=[];autosize=1;" parent="1" vertex="1">
          <mxGeometry x="534" y="246" width="34" height="18" as="geometry" />
        </mxCell>
        <mxCell id="OaKxnfZAiIrrLA7SOXJd-29" value="&lt;span&gt;想知&lt;/span&gt;" style="text;html=1;align=center;verticalAlign=middle;resizable=0;points=[];autosize=1;" parent="1" vertex="1">
          <mxGeometry x="220" y="112" width="34" height="18" as="geometry" />
        </mxCell>
        <mxCell id="OaKxnfZAiIrrLA7SOXJd-30" value="修复" style="text;html=1;align=center;verticalAlign=middle;resizable=0;points=[];autosize=1;" parent="1" vertex="1">
          <mxGeometry x="220" y="232" width="34" height="18" as="geometry" />
        </mxCell>
        <mxCell id="OaKxnfZAiIrrLA7SOXJd-35" value="" style="edgeStyle=orthogonalEdgeStyle;curved=1;rounded=0;orthogonalLoop=1;jettySize=auto;html=1;startArrow=oval;startFill=1;endArrow=none;endFill=0;strokeColor=#DF3DFF;" parent="1" source="OaKxnfZAiIrrLA7SOXJd-31" target="OaKxnfZAiIrrLA7SOXJd-24" edge="1">
          <mxGeometry relative="1" as="geometry" />
        </mxCell>
        <mxCell id="OaKxnfZAiIrrLA7SOXJd-31" value="&lt;ul&gt;&lt;li&gt;有些公众号是收纳在订阅号列表,有些不是,区别在哪&lt;/li&gt;&lt;li&gt;个人申请和企业主体申请&lt;/li&gt;&lt;li&gt;微信公众号对话系统是如何实现的&lt;/li&gt;&lt;li&gt;接受的消息类型提示不支持&lt;/li&gt;&lt;li&gt;公众号下面的菜单按钮&lt;/li&gt;&lt;li&gt;公众号网页推送&lt;/li&gt;&lt;li&gt;....&lt;/li&gt;&lt;/ul&gt;" style="rounded=1;html=1;align=left;whiteSpace=wrap;fillColor=none;" parent="1" vertex="1">
          <mxGeometry x="-151" y="27" width="255" height="149" as="geometry" />
        </mxCell>
        <mxCell id="qImOoQFZ_kJ1LtuL3L4L-28" value="" style="edgeStyle=orthogonalEdgeStyle;curved=1;rounded=0;orthogonalLoop=1;jettySize=auto;html=1;shadow=1;sourcePerimeterSpacing=7;endArrow=none;endFill=0;endSize=0;targetPerimeterSpacing=1;strokeColor=#DF3DFF;strokeWidth=1;startArrow=oval;startFill=1;" parent="1" source="qImOoQFZ_kJ1LtuL3L4L-27" edge="1">
          <mxGeometry relative="1" as="geometry">
            <mxPoint x="592" y="254" as="targetPoint" />
          </mxGeometry>
        </mxCell>
        <mxCell id="qImOoQFZ_kJ1LtuL3L4L-40" value="" style="edgeStyle=orthogonalEdgeStyle;curved=1;rounded=0;orthogonalLoop=1;jettySize=auto;html=1;startFill=0;endArrow=circle;endFill=1;endSize=0;targetPerimeterSpacing=3;strokeColor=#DF3DFF;strokeWidth=1;fillColor=#ffe6cc;shadow=1;" parent="1" source="qImOoQFZ_kJ1LtuL3L4L-27" target="qImOoQFZ_kJ1LtuL3L4L-39" edge="1">
          <mxGeometry relative="1" as="geometry">
            <Array as="points">
              <mxPoint x="820" y="276" />
              <mxPoint x="820" y="216" />
            </Array>
          </mxGeometry>
        </mxCell>
        <mxCell id="qImOoQFZ_kJ1LtuL3L4L-27" value="公网ip" style="rounded=1;whiteSpace=wrap;html=1;fillColor=#FFFFFF;align=center;arcSize=50;" parent="1" vertex="1">
          <mxGeometry x="764" y="256" width="40" height="40" as="geometry" />
        </mxCell>
        <mxCell id="qImOoQFZ_kJ1LtuL3L4L-43" value="" style="edgeStyle=orthogonalEdgeStyle;curved=1;rounded=0;orthogonalLoop=1;jettySize=auto;html=1;startArrow=none;startFill=0;endArrow=oval;endFill=1;endSize=6;targetPerimeterSpacing=3;strokeColor=#DF3DFF;strokeWidth=1;fillColor=#ffe6cc;shadow=1;" parent="1" source="qImOoQFZ_kJ1LtuL3L4L-29" target="qImOoQFZ_kJ1LtuL3L4L-42" edge="1">
          <mxGeometry relative="1" as="geometry" />
        </mxCell>
        <mxCell id="qImOoQFZ_kJ1LtuL3L4L-29" value="微信服务器模型" style="rounded=1;whiteSpace=wrap;html=1;fillColor=#FFFFFF;align=center;arcSize=50;" parent="1" vertex="1">
          <mxGeometry x="653" y="287" width="60" height="60" as="geometry" />
        </mxCell>
        <mxCell id="qImOoQFZ_kJ1LtuL3L4L-30" value="" style="edgeStyle=orthogonalEdgeStyle;curved=1;rounded=0;orthogonalLoop=1;jettySize=auto;html=1;shadow=1;sourcePerimeterSpacing=2;endArrow=none;endFill=0;endSize=0;targetPerimeterSpacing=1;strokeColor=#DF3DFF;strokeWidth=1;entryX=1;entryY=0.5;entryDx=0;entryDy=0;startArrow=oval;startFill=1;exitX=-0.013;exitY=0.617;exitDx=0;exitDy=0;exitPerimeter=0;" parent="1" source="qImOoQFZ_kJ1LtuL3L4L-29" target="OaKxnfZAiIrrLA7SOXJd-7" edge="1">
          <mxGeometry relative="1" as="geometry">
            <mxPoint x="588.0000000000001" y="271.00000000000006" as="targetPoint" />
            <Array as="points">
              <mxPoint x="652" y="295" />
              <mxPoint x="591" y="295" />
            </Array>
          </mxGeometry>
        </mxCell>
        <mxCell id="OaKxnfZAiIrrLA7SOXJd-12" value="" style="edgeStyle=orthogonalEdgeStyle;curved=1;rounded=0;orthogonalLoop=1;jettySize=auto;html=1;startArrow=none;startFill=0;endArrow=circle;endFill=1;strokeWidth=3;fillColor=#ffe6cc;strokeColor=#DF3DFF;endSize=0;targetPerimeterSpacing=3;" parent="1" source="C1bB6CRKGX8gR5cbwE8M-1" target="OaKxnfZAiIrrLA7SOXJd-7" edge="1">
          <mxGeometry relative="1" as="geometry" />
        </mxCell>
        <mxCell id="qImOoQFZ_kJ1LtuL3L4L-33" value="" style="group" parent="1" vertex="1" connectable="0">
          <mxGeometry x="359" y="27" width="435" height="88" as="geometry" />
        </mxCell>
        <mxCell id="OaKxnfZAiIrrLA7SOXJd-5" value="概括" style="rounded=1;whiteSpace=wrap;html=1;align=left;fillColor=#FFF712;labelPosition=center;verticalLabelPosition=top;verticalAlign=bottom;arcSize=47;" parent="qImOoQFZ_kJ1LtuL3L4L-33" vertex="1">
          <mxGeometry x="27" y="2" width="435" height="88" as="geometry" />
        </mxCell>
        <mxCell id="qImOoQFZ_kJ1LtuL3L4L-22" value="&lt;ul style=&quot;text-align: left&quot;&gt;&lt;li&gt;同学对于考题的争议 我选我方验证微信服务器 有人坚持双方验证&lt;/li&gt;&lt;li&gt;需要注册订阅号,可个人注册&lt;/li&gt;&lt;li&gt;需要公网ip或ddns&lt;/li&gt;&lt;li&gt;最好用&lt;a href=&quot;https://github.com/node-webot/co-wechat/blob/master/README.md&quot;&gt;中间件&lt;/a&gt;&lt;/li&gt;&lt;/ul&gt;" style="text;html=1;align=center;verticalAlign=middle;resizable=0;points=[];autosize=1;" parent="qImOoQFZ_kJ1LtuL3L4L-33" vertex="1">
          <mxGeometry x="42" y="4" width="393" height="84" as="geometry" />
        </mxCell>
        <mxCell id="qImOoQFZ_kJ1LtuL3L4L-35" style="edgeStyle=orthogonalEdgeStyle;curved=1;rounded=0;orthogonalLoop=1;jettySize=auto;html=1;exitX=0.25;exitY=0;exitDx=0;exitDy=0;shadow=1;startArrow=oval;startFill=1;sourcePerimeterSpacing=2;endArrow=none;endFill=0;endSize=7;targetPerimeterSpacing=1;strokeColor=#DF3DFF;strokeWidth=1;entryX=0.979;entryY=0.503;entryDx=0;entryDy=0;entryPerimeter=0;" parent="1" source="qImOoQFZ_kJ1LtuL3L4L-34" target="OaKxnfZAiIrrLA7SOXJd-7" edge="1">
          <mxGeometry relative="1" as="geometry">
            <mxPoint x="592" y="263" as="targetPoint" />
            <Array as="points">
              <mxPoint x="608" y="313" />
              <mxPoint x="589" y="313" />
            </Array>
          </mxGeometry>
        </mxCell>
        <mxCell id="qImOoQFZ_kJ1LtuL3L4L-71" value="" style="edgeStyle=orthogonalEdgeStyle;curved=1;rounded=0;orthogonalLoop=1;jettySize=auto;html=1;shadow=0;labelBackgroundColor=none;startArrow=none;startFill=0;sourcePerimeterSpacing=-1;endArrow=oval;endFill=1;endSize=6;targetPerimeterSpacing=3;strokeWidth=1;fillColor=#ffe6cc;fontSize=1;fontColor=#FF639C;align=left;strokeColor=#DF3DFF;" parent="1" source="qImOoQFZ_kJ1LtuL3L4L-34" target="qImOoQFZ_kJ1LtuL3L4L-70" edge="1">
          <mxGeometry relative="1" as="geometry">
            <Array as="points">
              <mxPoint x="618" y="416" />
            </Array>
          </mxGeometry>
        </mxCell>
        <mxCell id="qImOoQFZ_kJ1LtuL3L4L-72" style="edgeStyle=orthogonalEdgeStyle;curved=1;rounded=0;orthogonalLoop=1;jettySize=auto;html=1;exitX=0.945;exitY=0.825;exitDx=0;exitDy=0;entryX=0.137;entryY=0.821;entryDx=0;entryDy=0;entryPerimeter=0;shadow=0;labelBackgroundColor=none;startArrow=none;startFill=0;sourcePerimeterSpacing=-1;endArrow=oval;endFill=1;endSize=6;targetPerimeterSpacing=3;strokeColor=#DF3DFF;strokeWidth=1;fillColor=#ffe6cc;fontSize=1;fontColor=#FF639C;align=left;dashed=1;exitPerimeter=0;" parent="1" source="qImOoQFZ_kJ1LtuL3L4L-34" target="qImOoQFZ_kJ1LtuL3L4L-27" edge="1">
          <mxGeometry relative="1" as="geometry">
            <Array as="points">
              <mxPoint x="636" y="381" />
              <mxPoint x="770" y="381" />
            </Array>
          </mxGeometry>
        </mxCell>
        <mxCell id="qImOoQFZ_kJ1LtuL3L4L-34" value="中间件" style="rounded=1;whiteSpace=wrap;html=1;fillColor=#FFFFFF;align=center;arcSize=50;" parent="1" vertex="1">
          <mxGeometry x="598" y="341" width="40" height="40" as="geometry" />
        </mxCell>
        <mxCell id="qImOoQFZ_kJ1LtuL3L4L-39" value="&lt;ol&gt;&lt;li&gt;&lt;span&gt;阿里云/腾讯云/弹性服务器/裸金属&lt;/span&gt;&lt;/li&gt;&lt;li&gt;&lt;span&gt;Ngork2安装在上述服务器&lt;br&gt;&lt;/span&gt;&lt;/li&gt;&lt;li&gt;&lt;span&gt;或者利用私服&lt;/span&gt;&lt;/li&gt;&lt;li&gt;&lt;span&gt;&lt;a href=&quot;https://ngrok.com/docs&quot;&gt;安装文档&lt;/a&gt;&lt;/span&gt;&lt;/li&gt;&lt;li&gt;也能在本地安装ddns服务&lt;/li&gt;&lt;li&gt;使用utool做内网穿透,超级方便&lt;/li&gt;&lt;li&gt;也能卖花生壳,或者其他带ddns的路由器&lt;/li&gt;&lt;/ol&gt;" style="whiteSpace=wrap;html=1;rounded=1;fillColor=#FFFFFF;arcSize=50;align=left;" parent="1" vertex="1">
          <mxGeometry x="840" y="148" width="287" height="150" as="geometry" />
        </mxCell>
        <mxCell id="qImOoQFZ_kJ1LtuL3L4L-42" value="" style="rounded=1;fillColor=#FFFFFF;arcSize=0;fontSize=1;" parent="1" vertex="1">
          <mxGeometry x="777" y="331" width="308" height="252" as="geometry" />
        </mxCell>
        <mxCell id="qImOoQFZ_kJ1LtuL3L4L-44" value="peer" style="whiteSpace=wrap;html=1;rounded=1;fillColor=#FFFFFF;arcSize=50;align=center;" parent="1" vertex="1">
          <mxGeometry x="804" y="351" width="47.96" height="50" as="geometry" />
        </mxCell>
        <mxCell id="qImOoQFZ_kJ1LtuL3L4L-45" value="peer" style="whiteSpace=wrap;html=1;rounded=1;fillColor=#FFFFFF;arcSize=50;align=center;" parent="1" vertex="1">
          <mxGeometry x="869" y="350.0000000000002" width="48.92" height="51" as="geometry" />
        </mxCell>
        <mxCell id="qImOoQFZ_kJ1LtuL3L4L-46" value="peer" style="whiteSpace=wrap;html=1;rounded=1;fillColor=#FFFFFF;arcSize=50;align=center;" parent="1" vertex="1">
          <mxGeometry x="934" y="350.0000000000002" width="48.92" height="51" as="geometry" />
        </mxCell>
        <mxCell id="qImOoQFZ_kJ1LtuL3L4L-47" value="peer" style="whiteSpace=wrap;html=1;rounded=1;fillColor=#FFFFFF;arcSize=50;align=center;" parent="1" vertex="1">
          <mxGeometry x="999" y="350.00000000000017" width="48.92" height="51" as="geometry" />
        </mxCell>
        <mxCell id="qImOoQFZ_kJ1LtuL3L4L-49" value="微信服务器" style="whiteSpace=wrap;html=1;rounded=1;fillColor=#FFFFFF;arcSize=50;align=center;fontSize=7;" parent="1" vertex="1">
          <mxGeometry x="789.5" y="412" width="283" height="50" as="geometry" />
        </mxCell>
        <mxCell id="qImOoQFZ_kJ1LtuL3L4L-51" style="edgeStyle=orthogonalEdgeStyle;curved=1;rounded=0;orthogonalLoop=1;jettySize=auto;html=1;exitX=0;exitY=0.5;exitDx=0;exitDy=0;shadow=1;startArrow=none;startFill=0;endArrow=oval;endFill=1;endSize=6;targetPerimeterSpacing=3;strokeColor=#DF3DFF;strokeWidth=1;fillColor=#ffe6cc;dashed=1;entryX=0.134;entryY=0.825;entryDx=0;entryDy=0;entryPerimeter=0;" parent="1" source="qImOoQFZ_kJ1LtuL3L4L-50" target="qImOoQFZ_kJ1LtuL3L4L-27" edge="1">
          <mxGeometry relative="1" as="geometry">
            <Array as="points">
              <mxPoint x="730" y="547" />
              <mxPoint x="730" y="443" />
              <mxPoint x="771" y="443" />
              <mxPoint x="771" y="289" />
            </Array>
            <mxPoint x="771" y="289" as="targetPoint" />
          </mxGeometry>
        </mxCell>
        <mxCell id="qImOoQFZ_kJ1LtuL3L4L-50" value="私人服务器" style="whiteSpace=wrap;html=1;rounded=1;fillColor=#FFFFFF;arcSize=10;align=center;" parent="1" vertex="1">
          <mxGeometry x="789.5" y="522" width="283" height="50" as="geometry" />
        </mxCell>
        <mxCell id="qImOoQFZ_kJ1LtuL3L4L-52" value="" style="html=1;shadow=0;dashed=0;align=center;verticalAlign=middle;shape=mxgraph.arrows2.arrow;dy=0.81;dx=8.14;direction=south;notch=0;glass=1;fillColor=none;" parent="1" vertex="1">
          <mxGeometry x="828.54" y="469" width="23" height="50" as="geometry" />
        </mxCell>
        <mxCell id="qImOoQFZ_kJ1LtuL3L4L-53" value="" style="html=1;shadow=0;dashed=0;align=center;verticalAlign=middle;shape=mxgraph.arrows2.arrow;dy=0.81;dx=8.14;direction=south;notch=0;glass=1;fillColor=none;" parent="1" vertex="1">
          <mxGeometry x="889" y="469" width="23" height="50" as="geometry" />
        </mxCell>
        <mxCell id="qImOoQFZ_kJ1LtuL3L4L-54" value="" style="html=1;shadow=0;dashed=0;align=center;verticalAlign=middle;shape=mxgraph.arrows2.arrow;dy=0.81;dx=8.14;direction=south;notch=0;glass=1;fillColor=none;" parent="1" vertex="1">
          <mxGeometry x="950" y="469" width="23" height="50" as="geometry" />
        </mxCell>
        <mxCell id="qImOoQFZ_kJ1LtuL3L4L-55" value="" style="html=1;shadow=0;dashed=0;align=center;verticalAlign=middle;shape=mxgraph.arrows2.arrow;dy=0.81;dx=8.14;direction=south;notch=0;glass=1;fillColor=none;" parent="1" vertex="1">
          <mxGeometry x="1010.46" y="469" width="23" height="50" as="geometry" />
        </mxCell>
        <mxCell id="qImOoQFZ_kJ1LtuL3L4L-56" value="" style="endArrow=none;html=1;shadow=0;dashed=1;strokeColor=#DF3DFF;strokeWidth=1;fillColor=#ffe6cc;dashPattern=1 4;" parent="1" edge="1">
          <mxGeometry width="50" height="50" relative="1" as="geometry">
            <mxPoint x="1021.67" y="420" as="sourcePoint" />
            <mxPoint x="1021.67" y="381" as="targetPoint" />
          </mxGeometry>
        </mxCell>
        <mxCell id="qImOoQFZ_kJ1LtuL3L4L-57" value="" style="endArrow=none;html=1;shadow=0;dashed=1;strokeColor=#DF3DFF;strokeWidth=1;fillColor=#ffe6cc;dashPattern=1 4;" parent="1" edge="1">
          <mxGeometry width="50" height="50" relative="1" as="geometry">
            <mxPoint x="958.17" y="420" as="sourcePoint" />
            <mxPoint x="958.17" y="381" as="targetPoint" />
          </mxGeometry>
        </mxCell>
        <mxCell id="qImOoQFZ_kJ1LtuL3L4L-58" value="" style="endArrow=none;html=1;shadow=0;dashed=1;strokeColor=#DF3DFF;strokeWidth=1;fillColor=#ffe6cc;dashPattern=1 4;" parent="1" edge="1">
          <mxGeometry width="50" height="50" relative="1" as="geometry">
            <mxPoint x="893.17" y="420" as="sourcePoint" />
            <mxPoint x="893.17" y="381" as="targetPoint" />
          </mxGeometry>
        </mxCell>
        <mxCell id="qImOoQFZ_kJ1LtuL3L4L-59" value="" style="endArrow=none;html=1;shadow=0;dashed=1;strokeColor=#DF3DFF;strokeWidth=1;fillColor=#ffe6cc;dashPattern=1 4;" parent="1" edge="1">
          <mxGeometry width="50" height="50" relative="1" as="geometry">
            <mxPoint x="827.69" y="420" as="sourcePoint" />
            <mxPoint x="827.69" y="381" as="targetPoint" />
          </mxGeometry>
        </mxCell>
        <mxCell id="qImOoQFZ_kJ1LtuL3L4L-60" value="" style="html=1;shadow=0;dashed=0;align=center;verticalAlign=middle;shape=mxgraph.arrows2.arrow;dy=0.81;dx=8.14;direction=north;notch=0;glass=1;fillColor=none;flipH=1;" parent="1" vertex="1">
          <mxGeometry x="847" y="469" width="23" height="50" as="geometry" />
        </mxCell>
        <mxCell id="qImOoQFZ_kJ1LtuL3L4L-61" value="" style="html=1;shadow=0;dashed=0;align=center;verticalAlign=middle;shape=mxgraph.arrows2.arrow;dy=0.81;dx=8.14;direction=north;notch=0;glass=1;fillColor=none;flipH=1;" parent="1" vertex="1">
          <mxGeometry x="907.46" y="469" width="23" height="50" as="geometry" />
        </mxCell>
        <mxCell id="qImOoQFZ_kJ1LtuL3L4L-62" value="" style="html=1;shadow=0;dashed=0;align=center;verticalAlign=middle;shape=mxgraph.arrows2.arrow;dy=0.81;dx=8.14;direction=north;notch=0;glass=1;fillColor=none;flipH=1;" parent="1" vertex="1">
          <mxGeometry x="968.46" y="469" width="23" height="50" as="geometry" />
        </mxCell>
        <mxCell id="qImOoQFZ_kJ1LtuL3L4L-65" style="edgeStyle=orthogonalEdgeStyle;curved=1;rounded=0;orthogonalLoop=1;jettySize=auto;html=1;exitX=0;exitY=0;exitDx=20.93;exitDy=9.315000000000001;exitPerimeter=0;shadow=0;dashed=1;startArrow=none;startFill=0;endArrow=oval;endFill=1;endSize=2;targetPerimeterSpacing=7;strokeWidth=1;fillColor=#ffe6cc;fontSize=1;sourcePerimeterSpacing=-1;labelPosition=left;verticalLabelPosition=top;align=left;verticalAlign=top;labelBackgroundColor=none;fontColor=#FF639C;strokeColor=#FF639C;" parent="1" source="qImOoQFZ_kJ1LtuL3L4L-63" target="qImOoQFZ_kJ1LtuL3L4L-64" edge="1">
          <mxGeometry relative="1" as="geometry">
            <Array as="points">
              <mxPoint x="1043" y="483" />
              <mxPoint x="1069" y="483" />
              <mxPoint x="1069" y="458" />
              <mxPoint x="1043" y="458" />
            </Array>
          </mxGeometry>
        </mxCell>
        <mxCell id="qImOoQFZ_kJ1LtuL3L4L-66" value="&lt;h6&gt;&lt;span style=&quot;line-height: 10% ; font-weight: normal&quot;&gt;&lt;font style=&quot;font-size: 11px&quot;&gt;携带&lt;/font&gt;&lt;/span&gt;&lt;/h6&gt;" style="edgeLabel;html=1;align=center;verticalAlign=middle;resizable=0;points=[];fontSize=1;spacing=0;rotation=60;" parent="qImOoQFZ_kJ1LtuL3L4L-65" vertex="1" connectable="0">
          <mxGeometry x="-0.1645" y="1" relative="1" as="geometry">
            <mxPoint x="-2.999999999999999" y="17.86" as="offset" />
          </mxGeometry>
        </mxCell>
        <mxCell id="qImOoQFZ_kJ1LtuL3L4L-63" value="" style="html=1;shadow=0;dashed=0;align=center;verticalAlign=middle;shape=mxgraph.arrows2.arrow;dy=0.81;dx=8.14;direction=north;notch=0;glass=1;fillColor=none;flipH=1;" parent="1" vertex="1">
          <mxGeometry x="1028.92" y="469" width="23" height="50" as="geometry" />
        </mxCell>
        <mxCell id="qImOoQFZ_kJ1LtuL3L4L-64" value="token_access" style="text;html=1;align=center;verticalAlign=middle;resizable=0;points=[];autosize=1;fontSize=1;" parent="1" vertex="1">
          <mxGeometry x="991.46" y="434.5" width="85" height="5" as="geometry" />
        </mxCell>
        <mxCell id="qImOoQFZ_kJ1LtuL3L4L-69" value="" style="html=1;shadow=0;align=center;verticalAlign=middle;shape=mxgraph.arrows2.arrow;dy=0.55;dx=8.06;notch=0;glass=1;fillColor=none;fontSize=4;fontColor=#FF639C;strokeWidth=1;sketch=0;perimeterSpacing=0;" parent="1" vertex="1">
          <mxGeometry x="968.46" y="434.5" width="24" height="8" as="geometry" />
        </mxCell>
        <mxCell id="EErtVuoZGKK6cC3hVD9d-2" value="" style="edgeStyle=orthogonalEdgeStyle;rounded=0;orthogonalLoop=1;jettySize=auto;html=1;curved=1;endArrow=oval;endFill=1;strokeColor=#DF3DFF;sourcePerimeterSpacing=0;targetPerimeterSpacing=6;" parent="1" source="qImOoQFZ_kJ1LtuL3L4L-70" target="EErtVuoZGKK6cC3hVD9d-1" edge="1">
          <mxGeometry relative="1" as="geometry">
            <Array as="points">
              <mxPoint x="546.5" y="449" />
              <mxPoint x="561.5" y="449" />
            </Array>
          </mxGeometry>
        </mxCell>
        <mxCell id="EErtVuoZGKK6cC3hVD9d-5" style="edgeStyle=orthogonalEdgeStyle;curved=1;rounded=0;orthogonalLoop=1;jettySize=auto;html=1;exitX=0;exitY=0.5;exitDx=0;exitDy=0;entryX=0.75;entryY=0;entryDx=0;entryDy=0;endArrow=oval;endFill=1;strokeColor=#DF3DFF;sourcePerimeterSpacing=0;targetPerimeterSpacing=6;" parent="1" source="qImOoQFZ_kJ1LtuL3L4L-70" target="EErtVuoZGKK6cC3hVD9d-4" edge="1">
          <mxGeometry relative="1" as="geometry" />
        </mxCell>
        <mxCell id="EErtVuoZGKK6cC3hVD9d-6" style="edgeStyle=orthogonalEdgeStyle;curved=1;rounded=0;orthogonalLoop=1;jettySize=auto;html=1;exitX=0;exitY=0.75;exitDx=0;exitDy=0;endArrow=oval;endFill=1;strokeColor=#DF3DFF;sourcePerimeterSpacing=0;targetPerimeterSpacing=6;" parent="1" source="qImOoQFZ_kJ1LtuL3L4L-70" target="EErtVuoZGKK6cC3hVD9d-3" edge="1">
          <mxGeometry relative="1" as="geometry" />
        </mxCell>
        <mxCell id="qImOoQFZ_kJ1LtuL3L4L-70" value="&lt;a href=&quot;https://github.com/node-webot/wechat&quot;&gt;&lt;font&gt;wechat&lt;/font&gt;&lt;/a&gt;" style="whiteSpace=wrap;html=1;rounded=1;fillColor=#FFFFFF;arcSize=50;fontColor=#FFF712;" parent="1" vertex="1">
          <mxGeometry x="535.5" y="394" width="45" height="45" as="geometry" />
        </mxCell>
        <mxCell id="EErtVuoZGKK6cC3hVD9d-1" value="&lt;font color=&quot;#000000&quot;&gt;封装API&lt;/font&gt;" style="whiteSpace=wrap;html=1;rounded=1;fontColor=#FFF712;fillColor=#FFFFFF;arcSize=50;" parent="1" vertex="1">
          <mxGeometry x="531.5" y="470.0000000000001" width="59.5" height="59.5" as="geometry" />
        </mxCell>
        <mxCell id="EErtVuoZGKK6cC3hVD9d-3" value="&lt;font color=&quot;#000000&quot;&gt;能响应各种消息类型&lt;/font&gt;" style="whiteSpace=wrap;html=1;rounded=1;fontColor=#FFF712;fillColor=#FFFFFF;arcSize=50;" parent="1" vertex="1">
          <mxGeometry x="462.5" y="470.0000000000001" width="59.5" height="59.5" as="geometry" />
        </mxCell>
        <mxCell id="EErtVuoZGKK6cC3hVD9d-4" value="&lt;font color=&quot;#000000&quot;&gt;每次使用必须提交token&lt;/font&gt;" style="whiteSpace=wrap;html=1;rounded=1;fontColor=#FFF712;fillColor=#FFFFFF;arcSize=50;" parent="1" vertex="1">
          <mxGeometry x="393.5" y="470.0000000000001" width="59.5" height="59.5" as="geometry" />
        </mxCell>
        <mxCell id="EErtVuoZGKK6cC3hVD9d-7" value="&lt;ul&gt;&lt;li&gt;根据服务器模型,由于我方提供appid,微信服务器算出token,广义上是双方验证的,狭义是我方验证&lt;/li&gt;&lt;li&gt;公众号和订阅号的区别在于是否有实体营业&lt;/li&gt;&lt;li&gt;对话系统由我方服务器提供动态回复,可接入人工客服&lt;/li&gt;&lt;li&gt;如果中间件的消息类型没有定义回调函数,微信接收不到对应的回复,则提示不支持消息&lt;/li&gt;&lt;li&gt;关于菜单开发看文档&lt;/li&gt;&lt;li&gt;....&lt;/li&gt;&lt;/ul&gt;" style="whiteSpace=wrap;html=1;rounded=1;fillColor=#FFFFFF;arcSize=3;align=left;" parent="1" vertex="1">
          <mxGeometry x="-16" y="287" width="347" height="150" as="geometry" />
        </mxCell>
        <mxCell id="EErtVuoZGKK6cC3hVD9d-9" style="edgeStyle=orthogonalEdgeStyle;rounded=0;orthogonalLoop=1;jettySize=auto;html=1;exitX=0.512;exitY=1.025;exitDx=0;exitDy=0;entryX=1;entryY=0.5;entryDx=0;entryDy=0;curved=1;endArrow=none;endFill=0;sourcePerimeterSpacing=13;targetPerimeterSpacing=1;exitPerimeter=0;shadow=1;endSize=2;strokeWidth=2;dashed=1;dashPattern=1 2;startArrow=oval;startFill=1;" parent="1" source="qImOoQFZ_kJ1LtuL3L4L-22" target="OaKxnfZAiIrrLA7SOXJd-7" edge="1">
          <mxGeometry relative="1" as="geometry">
            <Array as="points">
              <mxPoint x="602" y="187" />
              <mxPoint x="580" y="187" />
              <mxPoint x="580" y="255" />
            </Array>
            <mxPoint x="602.2159999999999" y="117.10000000000002" as="sourcePoint" />
            <mxPoint x="591" y="255" as="targetPoint" />
          </mxGeometry>
        </mxCell>
      </root>
    </mxGraphModel>
  </diagram>
</mxfile>
